<mxfile host="app.diagrams.net" agent="Mozilla/5.0 (Windows NT 10.0; Win64; x64) AppleWebKit/537.36 (KHTML, like Gecko) Chrome/118.0.0.0 Safari/537.36" version="26.0.16">
  <diagram name="第 1 页" id="87VuQvJcL0TldmlzwdhA">
    <mxGraphModel dx="901" dy="631" grid="1" gridSize="10" guides="1" tooltips="1" connect="1" arrows="1" fold="1" page="1" pageScale="1" pageWidth="827" pageHeight="1169" math="0" shadow="0">
      <root>
        <mxCell id="0" />
        <mxCell id="1" parent="0" />
        <mxCell id="w6_yl8FeevtU8nksJMqK-15" value="" style="edgeStyle=orthogonalEdgeStyle;rounded=0;orthogonalLoop=1;jettySize=auto;html=1;" edge="1" parent="1" source="w6_yl8FeevtU8nksJMqK-12" target="w6_yl8FeevtU8nksJMqK-13">
          <mxGeometry relative="1" as="geometry" />
        </mxCell>
        <mxCell id="w6_yl8FeevtU8nksJMqK-22" style="edgeStyle=orthogonalEdgeStyle;rounded=0;orthogonalLoop=1;jettySize=auto;html=1;entryX=0;entryY=0.5;entryDx=0;entryDy=0;" edge="1" parent="1" source="w6_yl8FeevtU8nksJMqK-12" target="w6_yl8FeevtU8nksJMqK-21">
          <mxGeometry relative="1" as="geometry" />
        </mxCell>
        <mxCell id="w6_yl8FeevtU8nksJMqK-12" value="聊天者" style="html=1;whiteSpace=wrap;" vertex="1" parent="1">
          <mxGeometry x="120" y="110" width="110" height="50" as="geometry" />
        </mxCell>
        <mxCell id="w6_yl8FeevtU8nksJMqK-23" value="" style="edgeStyle=orthogonalEdgeStyle;rounded=0;orthogonalLoop=1;jettySize=auto;html=1;exitX=0.5;exitY=1;exitDx=0;exitDy=0;entryX=0.5;entryY=0;entryDx=0;entryDy=0;" edge="1" parent="1" source="w6_yl8FeevtU8nksJMqK-13" target="w6_yl8FeevtU8nksJMqK-21">
          <mxGeometry relative="1" as="geometry">
            <mxPoint x="500" y="170" as="sourcePoint" />
            <mxPoint x="340" y="190" as="targetPoint" />
          </mxGeometry>
        </mxCell>
        <mxCell id="w6_yl8FeevtU8nksJMqK-13" value="聊天室" style="html=1;whiteSpace=wrap;" vertex="1" parent="1">
          <mxGeometry x="340" y="60" width="110" height="50" as="geometry" />
        </mxCell>
        <mxCell id="w6_yl8FeevtU8nksJMqK-16" style="edgeStyle=orthogonalEdgeStyle;rounded=0;orthogonalLoop=1;jettySize=auto;html=1;" edge="1" parent="1" source="w6_yl8FeevtU8nksJMqK-14" target="w6_yl8FeevtU8nksJMqK-13">
          <mxGeometry relative="1" as="geometry" />
        </mxCell>
        <mxCell id="w6_yl8FeevtU8nksJMqK-14" value="管理员" style="html=1;whiteSpace=wrap;" vertex="1" parent="1">
          <mxGeometry x="560" y="60" width="110" height="50" as="geometry" />
        </mxCell>
        <mxCell id="w6_yl8FeevtU8nksJMqK-43" style="edgeStyle=orthogonalEdgeStyle;rounded=0;orthogonalLoop=1;jettySize=auto;html=1;entryX=0;entryY=0.5;entryDx=0;entryDy=0;" edge="1" parent="1" source="w6_yl8FeevtU8nksJMqK-17" target="w6_yl8FeevtU8nksJMqK-26">
          <mxGeometry relative="1" as="geometry" />
        </mxCell>
        <mxCell id="w6_yl8FeevtU8nksJMqK-17" value="聊天者" style="swimlane;fontStyle=0;childLayout=stackLayout;horizontal=1;startSize=26;fillColor=none;horizontalStack=0;resizeParent=1;resizeParentMax=0;resizeLast=0;collapsible=1;marginBottom=0;whiteSpace=wrap;html=1;" vertex="1" parent="1">
          <mxGeometry x="40" y="340" width="140" height="78" as="geometry" />
        </mxCell>
        <mxCell id="w6_yl8FeevtU8nksJMqK-18" value="姓名&lt;div&gt;&lt;br&gt;&lt;/div&gt;" style="text;strokeColor=none;fillColor=none;align=left;verticalAlign=top;spacingLeft=4;spacingRight=4;overflow=hidden;rotatable=0;points=[[0,0.5],[1,0.5]];portConstraint=eastwest;whiteSpace=wrap;html=1;" vertex="1" parent="w6_yl8FeevtU8nksJMqK-17">
          <mxGeometry y="26" width="140" height="26" as="geometry" />
        </mxCell>
        <mxCell id="w6_yl8FeevtU8nksJMqK-20" value="参与的聊天室列表" style="text;strokeColor=none;fillColor=none;align=left;verticalAlign=top;spacingLeft=4;spacingRight=4;overflow=hidden;rotatable=0;points=[[0,0.5],[1,0.5]];portConstraint=eastwest;whiteSpace=wrap;html=1;" vertex="1" parent="w6_yl8FeevtU8nksJMqK-17">
          <mxGeometry y="52" width="140" height="26" as="geometry" />
        </mxCell>
        <mxCell id="w6_yl8FeevtU8nksJMqK-21" value="消息" style="html=1;whiteSpace=wrap;" vertex="1" parent="1">
          <mxGeometry x="340" y="210" width="110" height="50" as="geometry" />
        </mxCell>
        <object label="聊天室" 创建时间="" id="w6_yl8FeevtU8nksJMqK-25">
          <mxCell style="swimlane;fontStyle=0;childLayout=stackLayout;horizontal=1;startSize=26;fillColor=none;horizontalStack=0;resizeParent=1;resizeParentMax=0;resizeLast=0;collapsible=1;marginBottom=0;whiteSpace=wrap;html=1;" vertex="1" parent="1">
            <mxGeometry x="344" y="340" width="140" height="78" as="geometry" />
          </mxCell>
        </object>
        <mxCell id="w6_yl8FeevtU8nksJMqK-26" value="创建人" style="text;strokeColor=none;fillColor=none;align=left;verticalAlign=top;spacingLeft=4;spacingRight=4;overflow=hidden;rotatable=0;points=[[0,0.5],[1,0.5]];portConstraint=eastwest;whiteSpace=wrap;html=1;" vertex="1" parent="w6_yl8FeevtU8nksJMqK-25">
          <mxGeometry y="26" width="140" height="26" as="geometry" />
        </mxCell>
        <mxCell id="w6_yl8FeevtU8nksJMqK-28" value="黑名单" style="text;strokeColor=none;fillColor=none;align=left;verticalAlign=top;spacingLeft=4;spacingRight=4;overflow=hidden;rotatable=0;points=[[0,0.5],[1,0.5]];portConstraint=eastwest;whiteSpace=wrap;html=1;" vertex="1" parent="w6_yl8FeevtU8nksJMqK-25">
          <mxGeometry y="52" width="140" height="26" as="geometry" />
        </mxCell>
        <mxCell id="w6_yl8FeevtU8nksJMqK-44" style="edgeStyle=orthogonalEdgeStyle;rounded=0;orthogonalLoop=1;jettySize=auto;html=1;entryX=1;entryY=0.5;entryDx=0;entryDy=0;" edge="1" parent="1" source="w6_yl8FeevtU8nksJMqK-32" target="w6_yl8FeevtU8nksJMqK-26">
          <mxGeometry relative="1" as="geometry" />
        </mxCell>
        <mxCell id="w6_yl8FeevtU8nksJMqK-32" value="管理员" style="swimlane;fontStyle=0;childLayout=stackLayout;horizontal=1;startSize=26;fillColor=none;horizontalStack=0;resizeParent=1;resizeParentMax=0;resizeLast=0;collapsible=1;marginBottom=0;whiteSpace=wrap;html=1;" vertex="1" parent="1">
          <mxGeometry x="660" y="340" width="140" height="78" as="geometry" />
        </mxCell>
        <mxCell id="w6_yl8FeevtU8nksJMqK-33" value="姓名" style="text;strokeColor=none;fillColor=none;align=left;verticalAlign=top;spacingLeft=4;spacingRight=4;overflow=hidden;rotatable=0;points=[[0,0.5],[1,0.5]];portConstraint=eastwest;whiteSpace=wrap;html=1;" vertex="1" parent="w6_yl8FeevtU8nksJMqK-32">
          <mxGeometry y="26" width="140" height="26" as="geometry" />
        </mxCell>
        <mxCell id="w6_yl8FeevtU8nksJMqK-35" value="管理的聊天室" style="text;strokeColor=none;fillColor=none;align=left;verticalAlign=top;spacingLeft=4;spacingRight=4;overflow=hidden;rotatable=0;points=[[0,0.5],[1,0.5]];portConstraint=eastwest;whiteSpace=wrap;html=1;" vertex="1" parent="w6_yl8FeevtU8nksJMqK-32">
          <mxGeometry y="52" width="140" height="26" as="geometry" />
        </mxCell>
        <mxCell id="w6_yl8FeevtU8nksJMqK-46" value="Classname" style="swimlane;fontStyle=0;childLayout=stackLayout;horizontal=1;startSize=26;fillColor=none;horizontalStack=0;resizeParent=1;resizeParentMax=0;resizeLast=0;collapsible=1;marginBottom=0;whiteSpace=wrap;html=1;" vertex="1" parent="1">
          <mxGeometry x="340" y="481" width="140" height="96" as="geometry" />
        </mxCell>
        <mxCell id="w6_yl8FeevtU8nksJMqK-47" value="+ field: type" style="text;strokeColor=none;fillColor=none;align=left;verticalAlign=top;spacingLeft=4;spacingRight=4;overflow=hidden;rotatable=0;points=[[0,0.5],[1,0.5]];portConstraint=eastwest;whiteSpace=wrap;html=1;" vertex="1" parent="w6_yl8FeevtU8nksJMqK-46">
          <mxGeometry y="26" width="140" height="18" as="geometry" />
        </mxCell>
        <mxCell id="w6_yl8FeevtU8nksJMqK-48" value="+ field: type" style="text;strokeColor=none;fillColor=none;align=left;verticalAlign=top;spacingLeft=4;spacingRight=4;overflow=hidden;rotatable=0;points=[[0,0.5],[1,0.5]];portConstraint=eastwest;whiteSpace=wrap;html=1;" vertex="1" parent="w6_yl8FeevtU8nksJMqK-46">
          <mxGeometry y="44" width="140" height="26" as="geometry" />
        </mxCell>
        <mxCell id="w6_yl8FeevtU8nksJMqK-49" value="+ field: type" style="text;strokeColor=none;fillColor=none;align=left;verticalAlign=top;spacingLeft=4;spacingRight=4;overflow=hidden;rotatable=0;points=[[0,0.5],[1,0.5]];portConstraint=eastwest;whiteSpace=wrap;html=1;" vertex="1" parent="w6_yl8FeevtU8nksJMqK-46">
          <mxGeometry y="70" width="140" height="26" as="geometry" />
        </mxCell>
      </root>
    </mxGraphModel>
  </diagram>
</mxfile>
